<svg aria-hidden="true" style="position: absolute; width: 0; height: 0; overflow: hidden;" version="1.1" xmlns="http://www.w3.org/2000/svg" xmlns:xlink="http://www.w3.org/1999/xlink">
<defs>
<symbol id="icon-person-black-18dp-1-1" viewBox="0 0 32 32">
<path d="M16.004 16.004c2.946 0 5.335-2.388 5.335-5.335s-2.388-5.335-5.335-5.335v0c-2.946 0-5.335 2.388-5.335 5.335s2.388 5.335 5.335 5.335v0zM16.004 18.671c-3.562 0-10.669 1.787-10.669 5.335v1.334c0 0.733 0.599 1.334 1.334 1.334h18.671c0.733 0 1.334-0.601 1.334-1.334v-1.334c0-3.547-7.109-5.335-10.669-5.335z"></path>
</symbol>
<symbol id="icon-phone-black-18dp-1-1" viewBox="0 0 32 32">
<path d="M24.887 19.779l-3.268-0.373c-0.090-0.011-0.194-0.018-0.3-0.018-0.707 0-1.347 0.287-1.811 0.75l-2.369 2.369c-3.67-1.894-6.587-4.811-8.429-8.374l-0.051-0.108 2.383-2.377c0.464-0.463 0.75-1.104 0.75-1.811 0-0.106-0.006-0.21-0.019-0.312l0.001 0.012-0.373-3.243c-0.155-1.288-1.241-2.276-2.557-2.276-0.001 0-0.002 0-0.003 0h-2.226c-1.455 0-2.664 1.209-2.575 2.662 0.683 10.989 9.472 19.766 20.449 20.449 1.453 0.089 2.664-1.12 2.664-2.575v-2.226c0-0.004 0-0.008 0-0.012 0-1.308-0.985-2.386-2.254-2.533l-0.012-0.001z"></path>
</symbol>
<symbol id="icon-Vector-1-1" viewBox="0 0 43 32">
<path d="M37.353 0h-32.016c-2.201 0-3.983 1.801-3.983 4.002l-0.019 24.012c0 2.201 1.801 4.002 4.002 4.002h32.016c2.201 0 4.002-1.801 4.002-4.002v-24.012c0-2.201-1.801-4.002-4.002-4.002zM36.552 8.506l-14.146 8.842c-0.302 0.188-0.668 0.3-1.061 0.3s-0.759-0.112-1.069-0.305l0.009 0.005-14.149-8.845c-0.504-0.301-0.836-0.844-0.836-1.464 0-0.939 0.761-1.7 1.7-1.7 0.349 0 0.673 0.105 0.943 0.286l13.401 8.382 13.407-8.386c0.264-0.177 0.588-0.282 0.937-0.282 0.939 0 1.7 0.761 1.7 1.7 0 0.62-0.332 1.163-0.828 1.459l-0.008 0.004z"></path>
</symbol>
</defs>
</svg>
