<svg aria-hidden="true" style="position: absolute; width: 0; height: 0; overflow: hidden;" version="1.1" xmlns="http://www.w3.org/2000/svg" xmlns:xlink="http://www.w3.org/1999/xlink">
<defs>
<symbol id="icon-icon-send-1" viewBox="0 0 32 32">
<path d="M32.003 0l-32.003 18.002 10.228 3.787 15.775-14.788-11.998 16.188 0.009 0.003-0.012-0.003v8.814l5.735-6.691 7.267 2.691 4.999-28.002z"></path>
</symbol>
</defs>
</svg>
<svg aria-hidden="true" style="position: absolute; width: 0; height: 0; overflow: hidden;" version="1.1" xmlns="http://www.w3.org/2000/svg" xmlns:xlink="http://www.w3.org/1999/xlink">
<defs>
<symbol id="icon-Vector-2-1" viewBox="0 0 34 32">
<path d="M30.356 3.555v24.9h-26.561v-24.9h26.561zM30.356-0.003h-26.561c-2.087 0-3.795 1.601-3.795 3.558v24.9c0 1.957 1.708 3.558 3.795 3.558h26.561c2.087 0 3.795-1.601 3.795-3.558v-24.9c0-1.957-1.708-3.558-3.795-3.558z"></path>
</symbol>
</defs>
</svg>
<svg aria-hidden="true" style="position: absolute; width: 0; height: 0; overflow: hidden;" version="1.1" xmlns="http://www.w3.org/2000/svg" xmlns:xlink="http://www.w3.org/1999/xlink">
<defs>
<symbol id="icon-Vector-3-1" viewBox="0 0 42 32">
<path  d="M6.267 15.222l-0.221-0.211-0.221 0.208-3.087 2.927 0.243 0.234 11.416 10.888 0.221-0.211 24.273-23.156-0.243-0.231-3.045-2.904-0.221 0.211-20.985 20.001-8.131-7.756z"></path>
</symbol>
</defs>
</svg>
